<svg xmlns="http://www.w3.org/2000/svg" viewBox="0 0 217.06 103.65"><defs><style>.cls-1{font-size:21px;font-family:Elsie-Black, Elsie;font-weight:800;letter-spacing:0.15em;}</style></defs><g id="Layer_2" data-name="Layer 2"><g id="Layer_1-2" data-name="Layer 1"><path d="M40.2,2.55h6q12.3,0,19,10.57Q69.35,19.75,70.92,33h31.84A44,44,0,0,0,91.12,13.58Q77.1,0,46.65,0H0V2.55H9.6V33H40.2Z"/><path d="M65.25,89.77q-6.6,11.48-20.1,11.48H40.2V71H9.6v30.3H0v2.4H48.15q15,0,26.25-4.13T92.25,87.9a47.94,47.94,0,0,0,9.8-17H70.7C69.63,79,67.82,85.31,65.25,89.77Z"/><path d="M179.55,89.77q-6.6,11.48-20.1,11.48H154.5V71H123.9v30.3h-9.6v2.4h48.15q15,0,26.25-4.13T206.55,87.9a48.09,48.09,0,0,0,9.8-17H185C183.93,79,182.12,85.31,179.55,89.77Z"/><path d="M154.5,2.55h6q12.3,0,19,10.57,4.18,6.63,5.75,19.83h31.84a44,44,0,0,0-11.64-19.37Q191.4,0,161,0H114.3V2.55h9.6V33h30.6Z"/><text class="cls-1" transform="translate(40.52 59.89)">DALY DOPE</text></g></g></svg>